<svg xmlns="http://www.w3.org/2000/svg" width="366" height="442" fill="none">
  <g clip-path="url(#a)">
    <path fill="#49497A" fill-rule="evenodd" d="M183 74A182 182 0 0 0 0 258a185 185 0 0 0 183 183 182 182 0 0 0 183-183A184 184 0 0 0 183 74Zm8 38c39 0 76 16 103 45a158 158 0 0 1 32 168 155 155 0 0 1-79 83 140 140 0 0 1-160-33 155 155 0 0 1-43-109c0-41 16-80 43-109 28-29 65-45 104-45Z" clip-rule="evenodd"/>
    <path fill="red" fill-rule="evenodd" d="M364 0c-126 33-76 153-236 226l2 22c3-5 7-9 12-11a32 32 0 0 1 38 4 31 31 0 0 1 9 22 30 30 0 0 1-11 24l28-4C235 105 356 139 364 0Z" clip-rule="evenodd"/>
    <path fill="red" d="M157 289c15 0 28-11 28-26 0-14-13-26-28-26s-27 12-27 26c0 15 12 26 27 26Z"/>
    <path fill="red" fill-rule="evenodd" d="m137 246 38 37c-82 65-18 151 70 126-135 54-147-114-108-163Z" clip-rule="evenodd"/>
    <path fill="#FF0" d="M156 279c8 1 15-6 15-13 0-8-6-15-14-15s-14 6-14 14 6 14 13 14Z"/>
    <path fill="#FF0" fill-rule="evenodd" d="m168 273-21-17c-10 7-21 43-22 66 14-48 34-36 43-49Z" clip-rule="evenodd"/>
  </g>
  <defs>
    <clipPath id="a">
      <path fill="#fff" d="M0 0h366v441H0z"/>
    </clipPath>
  </defs>
</svg>
