<?xml version="1.0" standalone="no"?>
<!DOCTYPE svg PUBLIC "-//W3C//DTD SVG 20010904//EN"
 "http://www.w3.org/TR/2001/REC-SVG-20010904/DTD/svg10.dtd">
<svg version="1.0" xmlns="http://www.w3.org/2000/svg"
 width="884.000000pt" height="884.000000pt" viewBox="0 0 884.000000 884.000000"
 preserveAspectRatio="xMidYMid meet">
<metadata>
Created by potrace 1.14, written by Peter Selinger 2001-2017
</metadata>
<g transform="translate(0.000000,884.000000) scale(0.100000,-0.100000)"
fill="#000000" stroke="none">
<path d="M8000 8830 c-266 -81 -413 -137 -585 -222 -96 -47 -229 -125 -282
-164 -17 -13 -34 -24 -37 -24 -6 0 -36 -24 -61 -47 -8 -7 -18 -13 -23 -13 -6
0 -12 -3 -14 -7 -1 -5 -32 -32 -68 -62 -107 -90 -283 -271 -360 -371 -19 -25
-37 -47 -40 -50 -3 -3 -17 -21 -30 -40 -13 -19 -27 -37 -30 -40 -11 -9 -155
-232 -210 -325 -29 -49 -60 -101 -68 -115 -9 -14 -34 -59 -56 -100 -21 -41
-42 -77 -45 -80 -3 -3 -24 -40 -46 -83 -22 -43 -43 -81 -47 -83 -4 -3 -33 7
-65 22 -279 127 -637 238 -903 279 -25 4 -54 9 -65 11 -11 2 -40 6 -65 9 -25
3 -54 8 -66 10 -121 26 -679 26 -854 1 -54 -8 -181 -26 -220 -32 -19 -3 -51
-9 -70 -14 -19 -5 -46 -11 -60 -14 -14 -2 -47 -10 -75 -16 -27 -6 -57 -13 -65
-15 -43 -9 -167 -47 -260 -80 -58 -20 -109 -37 -115 -39 -5 -2 -21 -8 -35 -13
-14 -6 -50 -21 -80 -33 -63 -25 -328 -155 -410 -201 -50 -28 -104 -63 -229
-145 -24 -16 -51 -33 -60 -39 -8 -5 -40 -29 -71 -53 -30 -23 -59 -46 -65 -50
-157 -118 -408 -355 -487 -457 -12 -16 -26 -31 -30 -33 -4 -2 -31 -34 -60 -70
-29 -37 -55 -69 -58 -72 -35 -30 -258 -370 -324 -495 -21 -38 -42 -77 -47 -85
-12 -20 -109 -229 -109 -236 0 -3 -8 -24 -19 -47 -46 -105 -146 -403 -154
-462 -1 -11 -5 -24 -8 -30 -5 -8 -16 -58 -20 -87 0 -4 -7 -34 -14 -66 -8 -32
-17 -81 -21 -108 -3 -27 -8 -58 -11 -69 -5 -22 -9 -53 -18 -130 -3 -27 -8 -68
-11 -90 -3 -22 -7 -157 -8 -300 -3 -232 6 -399 29 -545 62 -413 173 -772 344
-1120 34 -69 66 -132 71 -140 10 -18 141 -235 155 -258 17 -28 49 -76 62 -92
6 -8 45 -60 87 -115 41 -55 86 -113 100 -130 14 -16 43 -50 63 -74 89 -104
348 -355 438 -423 17 -12 32 -25 35 -29 9 -11 193 -145 255 -185 33 -21 62
-42 65 -45 3 -3 10 -8 15 -10 10 -4 141 -80 185 -108 14 -8 27 -16 30 -16 3
-1 21 -9 40 -20 204 -110 595 -264 764 -300 12 -2 57 -13 101 -25 87 -22 337
-66 425 -75 30 -3 87 -9 125 -12 39 -4 169 -7 290 -7 307 -1 501 19 775 78 24
6 245 63 265 70 6 1 37 11 70 21 56 16 102 33 245 88 30 12 57 24 60 27 3 3
12 6 20 8 8 2 83 36 165 77 494 243 910 579 1260 1020 22 28 43 51 47 53 5 2
8 10 8 17 0 7 3 15 8 17 4 2 16 17 28 33 60 86 111 163 123 188 8 15 18 27 23
27 4 0 8 4 8 9 0 5 20 43 44 83 63 108 218 426 222 458 0 3 8 22 17 44 9 21
17 40 17 42 0 1 5 15 12 31 6 15 12 33 13 38 2 6 10 33 20 60 9 28 18 57 20
65 2 8 13 43 24 78 10 34 17 62 15 62 -3 0 0 8 5 18 6 11 12 30 15 43 2 13 14
69 26 124 11 55 23 116 26 135 3 19 7 46 9 60 13 69 21 135 32 255 9 98 9 533
0 630 -12 129 -22 215 -30 250 -2 11 -7 41 -11 66 -12 79 -16 102 -36 185 -11
45 -21 90 -23 100 -1 11 -5 24 -8 29 -4 6 -10 27 -13 49 -4 21 -11 48 -15 60
-5 11 -9 24 -10 28 -5 25 -87 252 -117 325 -49 121 -142 311 -203 416 -28 49
-51 90 -51 92 0 5 -122 189 -129 195 -3 3 -22 29 -41 57 -19 29 -38 53 -42 53
-5 0 -8 5 -8 10 0 9 -81 115 -99 130 -3 3 -24 28 -45 55 -22 28 -116 126 -210
219 l-170 168 59 52 c191 166 560 556 618 654 10 17 23 32 28 32 5 0 9 7 9 15
0 8 5 15 10 15 6 0 10 6 10 14 0 8 3 16 8 18 10 4 112 164 112 177 0 5 3 11 8
13 10 4 114 218 150 309 61 154 134 395 147 486 2 15 7 39 10 53 3 14 7 39 10
55 3 17 8 41 10 55 5 24 9 55 20 160 3 25 7 61 10 80 10 79 14 169 7 173 -4 2
-18 1 -32 -3z m-3265 -2236 c61 -4 129 -7 152 -8 24 -1 43 -3 43 -6 0 -4 10
-6 23 -7 61 -2 289 -47 390 -78 29 -9 62 -18 74 -21 12 -2 43 -13 68 -24 26
-11 52 -20 58 -20 7 -1 36 -11 64 -23 l53 -23 -35 -53 c-19 -29 -35 -55 -35
-57 0 -8 -75 -119 -82 -122 -5 -2 -8 -8 -8 -13 0 -9 -36 -65 -50 -79 -3 -3
-25 -35 -50 -72 -25 -38 -48 -68 -52 -68 -5 0 -8 -5 -8 -11 0 -11 -192 -255
-271 -343 -52 -59 -286 -294 -349 -351 -38 -35 -82 -71 -255 -214 -11 -9 -45
-34 -75 -56 -30 -21 -57 -42 -60 -45 -5 -6 -191 -133 -235 -160 -256 -159
-348 -210 -592 -331 l-182 -91 4 -51 c12 -118 15 -156 21 -227 7 -93 12 -144
13 -149 1 -2 14 13 30 33 46 57 100 116 108 116 3 0 14 6 22 14 29 25 177 95
237 112 69 19 212 26 275 13 75 -14 83 -17 136 -38 53 -21 127 -64 150 -87 7
-7 23 -21 36 -31 54 -42 148 -195 162 -262 2 -9 8 -35 13 -59 13 -57 9 -235
-7 -292 -15 -54 -60 -150 -78 -168 -7 -7 -13 -17 -13 -22 0 -5 -24 -34 -53
-65 l-54 -56 31 5 c17 3 54 8 81 11 28 4 68 10 91 14 22 4 48 7 57 5 9 -1 17
2 17 7 0 6 4 8 9 5 5 -3 33 -2 62 3 46 8 102 16 181 25 28 3 29 5 43 91 5 30
11 61 20 113 3 15 8 38 11 52 3 14 7 37 9 51 4 25 35 165 56 244 5 22 12 54
15 70 3 17 10 37 15 46 4 9 11 30 14 46 2 17 14 61 26 99 12 38 22 74 24 79 1
6 5 17 8 25 3 8 20 58 37 110 30 90 104 283 137 360 22 49 181 372 193 390 5
8 42 69 81 135 40 66 81 129 91 141 10 11 18 24 18 28 0 9 181 252 220 296 12
14 38 45 58 69 63 76 123 140 249 269 l122 124 28 -22 c99 -77 266 -237 373
-355 89 -99 230 -279 230 -294 0 -5 4 -11 8 -13 10 -3 122 -174 122 -185 0 -3
6 -14 14 -22 12 -14 171 -318 176 -339 4 -11 19 -50 55 -142 27 -69 74 -209
81 -242 1 -5 2 -10 3 -13 0 -3 2 -8 2 -12 1 -5 5 -18 10 -31 5 -12 11 -33 13
-45 2 -12 9 -40 14 -62 6 -22 14 -56 17 -75 3 -19 10 -57 15 -85 5 -27 12 -68
15 -90 2 -22 7 -49 9 -61 27 -130 28 -680 1 -784 -2 -8 -6 -40 -10 -71 -3 -31
-8 -67 -11 -80 -2 -13 -7 -40 -10 -59 -3 -19 -11 -43 -16 -54 -6 -11 -6 -16 0
-13 5 4 3 -13 -3 -36 -7 -23 -29 -100 -49 -172 -37 -130 -111 -340 -128 -361
-5 -7 -11 -21 -13 -32 -12 -65 -244 -479 -302 -540 -7 -7 -13 -17 -13 -21 0
-4 -8 -16 -17 -27 -10 -10 -38 -46 -62 -79 -98 -130 -294 -338 -417 -440 -26
-22 -52 -45 -58 -51 -13 -12 -144 -112 -176 -134 -12 -8 -32 -22 -44 -32 -44
-33 -216 -137 -216 -130 0 4 -4 2 -8 -4 -14 -23 -332 -174 -332 -158 0 3 -6 2
-12 -3 -14 -8 -30 -12 -68 -18 -14 -1 -25 -4 -25 -5 0 -2 -36 -10 -75 -15 -19
-2 -46 -7 -60 -10 -95 -20 -416 -27 -535 -11 -114 15 -170 25 -220 38 -22 6
-47 12 -55 13 -8 2 -15 4 -15 5 0 1 -7 3 -15 5 -34 7 -148 48 -196 71 -28 13
-54 24 -57 24 -12 0 -180 101 -244 147 -61 43 -211 186 -256 241 -134 170
-226 384 -255 592 -12 93 -6 293 13 380 3 14 8 38 11 54 2 16 7 32 9 36 2 3 6
17 9 31 6 36 64 183 93 237 71 135 98 177 188 297 67 89 280 308 365 375 193
152 270 296 257 480 -10 138 -62 237 -182 351 -16 16 -33 29 -37 29 -4 0 -13
6 -20 13 -33 31 -191 93 -209 81 -4 -2 -10 0 -13 5 -6 10 -183 8 -225 -3 -115
-28 -234 -106 -307 -201 -42 -56 -177 -330 -189 -385 -2 -8 -9 -28 -16 -45 -6
-16 -13 -34 -15 -40 -1 -5 -12 -44 -24 -85 -20 -70 -53 -217 -64 -285 -33
-210 -39 -279 -40 -525 0 -184 5 -297 19 -400 6 -46 27 -182 29 -195 21 -101
30 -138 42 -181 8 -28 16 -60 18 -70 3 -11 9 -31 15 -46 6 -16 8 -28 5 -28 -2
0 3 -14 12 -31 8 -17 17 -38 19 -47 2 -10 9 -30 16 -47 7 -16 13 -32 14 -35
17 -50 85 -189 127 -258 21 -34 38 -67 38 -72 0 -6 5 -10 10 -10 6 0 10 -7 10
-15 0 -8 4 -15 8 -15 4 0 15 -12 24 -27 52 -87 237 -273 346 -348 154 -106
367 -195 531 -220 14 -3 40 -7 56 -10 33 -6 99 -12 160 -15 26 -1 34 -4 23 -8
-18 -7 -143 -6 -278 3 -91 5 -155 13 -255 30 -16 3 -46 8 -65 11 -19 3 -62 12
-95 20 -33 8 -67 16 -75 18 -331 79 -726 269 -1000 481 -21 17 -51 40 -67 52
-16 12 -42 34 -56 47 -15 14 -27 23 -27 21 0 -9 -264 259 -310 314 -25 29 -53
63 -63 75 -10 11 -28 34 -40 49 -12 16 -27 34 -33 41 -24 26 -164 234 -164
244 0 6 -4 12 -8 14 -12 4 -51 74 -131 233 -74 147 -83 165 -141 322 -40 109
-56 157 -86 273 -22 84 -25 93 -30 120 -3 14 -7 33 -10 43 -3 10 -7 31 -10 47
-2 17 -6 45 -9 63 -3 17 -8 50 -11 72 -2 22 -7 47 -9 55 -26 96 -27 614 -1
810 2 14 7 52 10 85 4 33 9 68 12 77 5 18 11 47 20 93 10 59 45 201 65 265 11
36 22 72 24 80 8 35 77 216 86 225 5 5 9 15 9 22 0 7 14 42 30 76 17 35 30 69
30 74 0 6 7 16 15 23 9 7 13 15 11 18 -3 2 6 22 20 43 13 21 24 41 24 45 0 11
131 225 184 302 28 41 58 83 66 95 8 12 19 27 25 33 5 6 21 26 35 44 92 124
340 379 420 432 14 9 37 27 53 41 15 14 43 35 62 48 19 13 35 27 35 32 0 4 7
7 15 7 8 0 15 5 15 10 0 6 6 10 14 10 8 0 16 3 18 8 4 10 99 72 205 133 77 44
182 97 303 152 36 16 167 67 185 71 6 2 17 6 25 9 47 19 220 66 305 83 11 2
31 6 45 9 42 9 61 12 180 30 70 11 125 16 224 20 60 2 110 6 112 7 3 3 31 2
189 -8z m-45 -6148 c0 -11 -19 -15 -25 -6 -3 5 1 10 9 10 9 0 16 -2 16 -4z"/>
</g>
</svg>
